<svg id="Layer_1" data-name="Layer 1" xmlns="http://www.w3.org/2000/svg" viewBox="0 0 614 179.98"><defs><style>.cls-1{fill:#fff;}</style></defs><title>chzbgr-sequel-logo</title><path class="cls-1" d="M21.88,153.5q-4.5-3.5-7.75-14.38a146.34,146.34,0,0,1-4.87-25.25,289.29,289.29,0,0,1-1.75-30.5A254.47,254.47,0,0,1,9,52.75a137.82,137.82,0,0,1,5-25.38q3.38-10.87,8.62-14.62a27.57,27.57,0,0,1,9-4,34.62,34.62,0,0,1,10.13-1,29.75,29.75,0,0,1,9.75,2.12,24.3,24.3,0,0,1,8.12,5.38c1.5.5,2.34.17,2.5-1s.34-2.58.5-4.25a2,2,0,0,1,2.25-2.25c1.34,0,2,.75,2,2.25V34a2.75,2.75,0,0,1-1.37,2.12,4.79,4.79,0,0,1-2.38.63,3.23,3.23,0,0,1-3.25-3.5.75.75,0,0,1-.25-.5v-.5a26.81,26.81,0,0,0-2.37-8.5,18.14,18.14,0,0,0-4.75-6.38,10.45,10.45,0,0,0-6.38-2.5,9.42,9.42,0,0,0-6.75,2.88Q35.88,21,33.76,31.12a168.81,168.81,0,0,0-3,23.63q-.89,13.5-.75,28.62t1.12,28.5q1,13.38,2.75,23.13t4.25,12.5c2.17,2.67,4.5,4.12,7,4.37A9.33,9.33,0,0,0,51.88,150,18.26,18.26,0,0,0,57,143.62a25.26,25.26,0,0,0,2.62-9.12V134l.25-.5a3.21,3.21,0,0,1,3.25-3.5,4.89,4.89,0,0,1,2.38.62,2.79,2.79,0,0,1,1.37,2.13v24c0,1.5-.66,2.25-2,2.25a2,2,0,0,1-2.25-2.25c-.16-1.67-.33-3.08-.5-4.25s-1-1.5-2.5-1a22.14,22.14,0,0,1-8.37,5.62,32.43,32.43,0,0,1-10.13,2.13A31.5,31.5,0,0,1,30.76,158,25.48,25.48,0,0,1,21.88,153.5Zm8.75-8A82.15,82.15,0,0,1,27.51,131q-1.38-9.5-2.13-21.5t-1-25q-.24-13,.38-25.25T26.88,37a65.07,65.07,0,0,1,4-15.75Q27.64,25,25.63,34.87a176,176,0,0,0-2.87,22.75Q21.88,70.51,22,84.75t1.25,26.75q1.13,12.5,2.87,21.75t4,11.75Z" transform="translate(-7.5 -7.71)"/><path class="cls-1" d="M179.88,135.5c1.5,0,2.25.67,2.25,2a2,2,0,0,1-2.25,2.25h-33.5c-1.34,0-2-.75-2-2.25a1.77,1.77,0,0,1,2-2q5.75,0,5.75-6V116q-2.25-5.75-8.5-10.5a54.21,54.21,0,0,0-14-7.63A49.43,49.43,0,0,0,114,94.75q-7.87-.25-13.13,2.75a8.66,8.66,0,0,1,.5,6.37,8.38,8.38,0,0,1-3.25,4.38,6.77,6.77,0,0,1-4.87,1.12,7.5,7.5,0,0,1-4.38-2.12,8.21,8.21,0,0,1-1-10.25,16.47,16.47,0,0,1,8.25-6.63,51.3,51.3,0,0,1,9.75-3.12V41.75q0-5.51-5.75-5.5c-1.5,0-2.25-.67-2.25-2A2,2,0,0,1,100.13,32h33.5c1.33,0,2,.75,2,2.25a1.77,1.77,0,0,1-2,2,5.71,5.71,0,0,0-4,1.62,5.12,5.12,0,0,0-1.75,3.88V88.5a59.17,59.17,0,0,1,6,2.25q3.5,1.5,7,3.37t6.5,3.75a26.92,26.92,0,0,1,4.75,3.63V41.75q0-5.51-5.75-5.5a1.77,1.77,0,0,1-2-2c0-1.5.66-2.25,2-2.25h33.5a2,2,0,0,1,2.25,2.25c0,1.33-.75,2-2.25,2a5.71,5.71,0,0,0-4,1.62,5.12,5.12,0,0,0-1.75,3.88v88C174.13,133.58,176,135.5,179.88,135.5Zm-46.25,0a1.77,1.77,0,0,1,2,2c0,1.5-.67,2.25-2,2.25h-33.5a2,2,0,0,1-2.25-2.25c0-1.33.75-2,2.25-2q5.75,0,5.75-6V99.25a24.23,24.23,0,0,1,11.25-.38A53,53,0,0,1,127.88,102v27.75C127.88,133.58,129.79,135.5,133.63,135.5Zm-10.5-93.75-2.5-.25V86.75l2.5.25Zm0,63.75-2.5-.5v25h2.5Zm46.5,24.5V41.75l-2.5-.25V130Z" transform="translate(-7.5 -7.71)"/><path class="cls-1" d="M268.63,32a3.21,3.21,0,0,1,3.87,2.12c.75,1.75.46,4.05-.87,6.88l-.5,1.5q-8.25,21.75-16.88,42.87t-16.87,42.88c-1,2.83-.09,4.75,2.75,5.75a17.53,17.53,0,0,0,10,.12A26.69,26.69,0,0,0,261,128.5a14.15,14.15,0,0,0,5.13-11.5c0-1.33.75-2,2.25-2a1.77,1.77,0,0,1,2,2v20.5c0,1.5-.67,2.25-2,2.25H219.13q-3.75,0-5.13-2.25c-.91-1.5-.79-3.75.38-6.75q8.49-22.5,17.37-44.5T249.38,42c.66-2-.46-3.42-3.38-4.25a21.3,21.3,0,0,0-10.25,0A25.74,25.74,0,0,0,224.88,43q-5,4-5,11.75a2.25,2.25,0,0,1-4.5,0V34.25A2,2,0,0,1,217.63,32q12.75,0,25.5.12T268.63,32Zm-5,9.75h-2.5l-33.5,88.5h2.25Z" transform="translate(-7.5 -7.71)"/><path class="cls-1" d="M359.13,88.25a20.45,20.45,0,0,1,7,6,19.25,19.25,0,0,1,3.5,8.5c.16,1.17.28,2.83.37,5s.08,4.42,0,6.75-.21,4.58-.37,6.75a22,22,0,0,1-.75,4.75,19.5,19.5,0,0,1-7.13,9.75,19.19,19.19,0,0,1-11.62,3.75h-4.25a1,1,0,0,1-.75.25H306.38a2,2,0,0,1-2.25-2.25c0-1.33.75-2,2.25-2q5.75,0,5.75-6V41.75q0-5.51-5.75-5.5c-1.5,0-2.25-.67-2.25-2A2,2,0,0,1,306.38,32h43.75a18.2,18.2,0,0,1,13,5.25,21.45,21.45,0,0,1,6.5,13.25,90.3,90.3,0,0,1,.5,10.62,97.13,97.13,0,0,1-.5,10.88,21,21,0,0,1-3.38,9.62A19.31,19.31,0,0,1,359.13,88.25Zm-30,42V41.75h-2.5v88.5Zm21.25-60c.16-2.33.25-5.33.25-9s-.09-6.58-.25-8.75q-.51-6.26-3.13-9.88a13.74,13.74,0,0,0-5.62-4.87,6.79,6.79,0,0,0-5.38-.25c-1.59.67-2.37,2.08-2.37,4.25v44.5h.25q7.25,0,11.5-4.75A18.62,18.62,0,0,0,350.38,70.25Zm-.5,53.5a31.29,31.29,0,0,0,.37-3.88c.08-1.75.13-3.62.13-5.62v-5.63a27.23,27.23,0,0,0-.25-4.12q-.51-6.5-4.75-10.13a16.4,16.4,0,0,0-11-3.62h-.5v39q0,3.75,2.25,4.75a6.8,6.8,0,0,0,5,.12,12.63,12.63,0,0,0,5.37-3.75A13.86,13.86,0,0,0,349.88,123.75Zm11-83.25a61.36,61.36,0,0,1,2.62,12.25,68.9,68.9,0,0,1,.25,11.62,75.74,75.74,0,0,1-1.37,10.38,51.73,51.73,0,0,1-2.5,8.5,22.36,22.36,0,0,0,4.87-9.38,45.84,45.84,0,0,0,1.63-12.25A52.28,52.28,0,0,0,365,49.5,21.64,21.64,0,0,0,360.88,40.5Zm-1,92a18.41,18.41,0,0,0,4.87-8.38A38.31,38.31,0,0,0,366.38,113,42.17,42.17,0,0,0,365,102.12,19.25,19.25,0,0,0,360.88,94a52.25,52.25,0,0,1,2.75,21.62Q362.63,126,359.88,132.5Z" transform="translate(-7.5 -7.71)"/><path class="cls-1" d="M474.87,92.75a2.25,2.25,0,0,1,0,4.5,6,6,0,0,0-4,1.5,4.73,4.73,0,0,0-1.75,3.75V140a3,3,0,0,1-2.5,3.12,9.68,9.68,0,0,1-5.5-.37,13.48,13.48,0,0,1-5.5-3.63,9.54,9.54,0,0,1-2.5-6.87q-1.5,4.5-6.88,6.62a28.82,28.82,0,0,1-11.87,1.88,31.42,31.42,0,0,1-12.5-3.13,19.89,19.89,0,0,1-9-8.12,56.23,56.23,0,0,1-5.5-14.88,112.13,112.13,0,0,1-2.63-17.87,171.07,171.07,0,0,1-.25-18.38A126.65,126.65,0,0,1,406.12,62a74.65,74.65,0,0,1,2.75-11,38.24,38.24,0,0,1,4.75-9.63A24.55,24.55,0,0,1,432.37,30.5a38.24,38.24,0,0,1,14.12,1.12A25,25,0,0,1,457.87,38c1.33.5,2.12.17,2.37-1a40.1,40.1,0,0,0,.63-4.25,2,2,0,0,1,2.25-2.25c1.33,0,2,.75,2,2.25v24a2.78,2.78,0,0,1-1.38,2.12,4.78,4.78,0,0,1-2.37.63,3.28,3.28,0,0,1-2.25-.88A4,4,0,0,1,457.87,56V55a24.21,24.21,0,0,0-2.38-8,19.19,19.19,0,0,0-4.87-6.25,12.85,12.85,0,0,0-6.5-3,9.91,9.91,0,0,0-6.75,1.5q-4.75,2.74-6.75,9A66.5,66.5,0,0,0,427.87,61a142.23,142.23,0,0,0-1,14.87q-.25,9.38.12,19.25t1.38,18.5q1,8.63,3.25,12.38,2.75,5,5.87,6.25a7.54,7.54,0,0,0,6,0,12.64,12.64,0,0,0,5.25-4.75,27,27,0,0,0,3.63-8,44.41,44.41,0,0,0,1-5.38,41.91,41.91,0,0,0,.37-7.25,14.33,14.33,0,0,0-1.5-6.25A4.58,4.58,0,0,0,447.87,98a4.27,4.27,0,0,0,.12,1,3.81,3.81,0,0,1,.13,1,7.28,7.28,0,0,1-7.5,7.5,7,7,0,0,1-5.13-2.13,7.28,7.28,0,0,1-2.12-5.37c0-2.83.91-4.75,2.75-5.75a12.81,12.81,0,0,1,6.25-1.5ZM424.62,127a97.61,97.61,0,0,1-2.25-15.5q-.75-9.5-1-19.63t.12-19.5q.38-9.37.88-14.87a96.51,96.51,0,0,1,2.25-12.75,35.58,35.58,0,0,0-3.25,7.75,50.35,50.35,0,0,0-1.75,8.5q-.51,5.5-.75,14.87T419,95.12q.38,9.88,1.5,18.5T423.87,126a2,2,0,0,1,.37.5A2.07,2.07,0,0,0,424.62,127Zm39.5-24-2.5.25v25l2.5-.75Z" transform="translate(-7.5 -7.71)"/><path class="cls-1" d="M555.12,86.75a47.5,47.5,0,0,1,8,17q2.75,10.25,4.87,21t4.38,20.12q2.25,9.38,6,14.63,4.5,6,11.5,5.37a24.64,24.64,0,0,0,13-5.25,27.09,27.09,0,0,0,8.87-12.37,20.28,20.28,0,0,0-.87-16,15,15,0,0,0-5.13-6.38,14.83,14.83,0,0,0-7.12-2.75,12.43,12.43,0,0,0-7.25,1.5,11.6,11.6,0,0,0-5.25,6.38c-.84,1.83-1.75,2.54-2.75,2.12a6.05,6.05,0,0,1-2.75-3.12,19.66,19.66,0,0,1-1.75-6.25,13.89,13.89,0,0,1,.75-7,19.25,19.25,0,0,1,4.5-6.25,17.07,17.07,0,0,1,5.87-3,21,21,0,0,1,8.13-.5,23,23,0,0,1,12.75,5.12,27.52,27.52,0,0,1,7.87,10.63,35.76,35.76,0,0,1,2.75,13.37A41.38,41.38,0,0,1,619.37,149q-4.75,13-15.13,18.25a36.62,36.62,0,0,1-21.12,4q-9-.75-14.88-5.25a39.48,39.48,0,0,1-9.87-11.13,64,64,0,0,1-6.5-15q-2.5-8.37-4.5-17.12t-4-17a88.5,88.5,0,0,0-5-15,30.89,30.89,0,0,0-3.5-5.63A4.94,4.94,0,0,0,531.12,83v64.75c0,3.83,1.91,5.75,5.75,5.75a2,2,0,0,1,2.25,2.25c0,1.33-.75,2-2.25,2a21.21,21.21,0,0,0-8.38,1.75q-4.12,1.74-8.25,3.75T511.87,167a21.78,21.78,0,0,1-8.25,1.75,2,2,0,0,1-2.25-2.25c0-1.34.75-2,2.25-2,2.16,0,3.62-.5,4.37-1.5a7.46,7.46,0,0,0,1.13-4.5V18.75c0-3.67-1.84-5.5-5.5-5.5A2,2,0,0,1,501.37,11c0-1.33.75-2,2.25-2q13.5,0,24.25-.13t21.25-.12A19.31,19.31,0,0,1,563,14.12a34.25,34.25,0,0,1,8.5,13.38,52.92,52.92,0,0,1,3,17.37,50,50,0,0,1-2.75,17.5A35.8,35.8,0,0,1,563,76.25a22.25,22.25,0,0,1-14.87,6.25C550.78,82.5,553.12,83.92,555.12,86.75ZM524.62,20.5V153.25l2.5-1.25V20.5Zm6.5,57.25q7.25,0,11.5-2.88a18.8,18.8,0,0,0,6.5-7.5A29.43,29.43,0,0,0,551.87,57a90.12,90.12,0,0,0,.25-11.5q-.51-11.25-3.75-18.13t-7.13-9.87c-2.58-2-4.92-2.88-7-2.63s-3.12,1.55-3.12,3.88Zm40.5,79.75A76.63,76.63,0,0,1,567,142.12q-1.87-9.12-3.87-18.62T558.37,105a48.52,48.52,0,0,0-7.25-15,7.68,7.68,0,0,0-3.25-2.75,52,52,0,0,1,7.37,16.5q2.63,9.75,4.75,19.87t4.25,19q2.13,8.88,5.88,13.63A6.79,6.79,0,0,0,571.62,157.5ZM554.37,15.25a27,27,0,0,1,8.75,13.25,52.44,52.44,0,0,1,2.5,17.62,48.53,48.53,0,0,1-3.75,17.5,28.6,28.6,0,0,1-10,12.88,25.36,25.36,0,0,0,11.87-12.25,43.71,43.71,0,0,0,4.38-18.13,45.1,45.1,0,0,0-3.25-18.25Q561.36,19.25,554.37,15.25Z" transform="translate(-7.5 -7.71)"/><path class="cls-1" d="M188.18,185.05h5.43v2.45h-7.87v-37h7.87V153h-5.43Z" transform="translate(-7.5 -7.71)"/><path class="cls-1" d="M215.63,181.65h-2.2V156.13h-7.92V153.9h18.07v2.23h-8Z" transform="translate(-7.5 -7.71)"/><path class="cls-1" d="M230.06,169.56H243.6V153.9h2.19v27.75H243.6v-9.9H230.06v9.9h-2.19V153.9h2.19Z" transform="translate(-7.5 -7.71)"/><path class="cls-1" d="M252.64,166.68h12.52v2.19H252.64v10.59h15.51v2.19H250.44V153.9h17.71v2.23H252.64Z" transform="translate(-7.5 -7.71)"/><path class="cls-1" d="M289.75,179.35c3.35.5,5.62-.36,6.77-1.8a3.63,3.63,0,0,0,.9-1.94,4.66,4.66,0,0,0-.18-2.2c-1.87-5.51-8.93-3.28-12.74-8.68a7.17,7.17,0,0,1-1.34-3.56c-.57-7.88,12.6-9.83,16.24-2.73l-1.95,1a6.59,6.59,0,0,0-3.27-2.77,6.68,6.68,0,0,0-4.21-.39,6.58,6.58,0,0,0-4,2.48,3.43,3.43,0,0,0-.58,2.27,5.13,5.13,0,0,0,.93,2.44c3.39,4.79,10.66,2.31,13,9.22a6.34,6.34,0,0,1-1.08,6.26c-4,4.86-12.31,2.7-15.87-1.62l1.69-1.4A10.61,10.61,0,0,0,289.75,179.35Z" transform="translate(-7.5 -7.71)"/><path class="cls-1" d="M305.91,166.68h12.53v2.19H305.91v10.59h15.52v2.19H303.72V153.9h17.71v2.23H305.91Z" transform="translate(-7.5 -7.71)"/><path class="cls-1" d="M347.64,174.24a11.74,11.74,0,0,0,1.94-6.45,11.6,11.6,0,0,0-19.8-8.2,11.55,11.55,0,0,0,0,16.41,11.59,11.59,0,0,0,8.21,3.38,11.73,11.73,0,0,0,6.55-2l1.55,1.65a13.69,13.69,0,0,1-8.1,2.63,13.84,13.84,0,1,1,11.23-5.72l3.89,4.21-1.62,1.48c-2.88-3.1-5.73-6.2-8.61-9.33l1.62-1.47Z" transform="translate(-7.5 -7.71)"/><path class="cls-1" d="M359.48,171.11a8.32,8.32,0,1,0,16.63,0V153.94h2.2v17.17a10.51,10.51,0,0,1-3.1,7.45,10.35,10.35,0,0,1-7.41,3.06,10.52,10.52,0,0,1-7.46-3.06,10.63,10.63,0,0,1-3-7.45V153.94h2.19Z" transform="translate(-7.5 -7.71)"/><path class="cls-1" d="M385,166.68h12.53v2.19H385v10.59h15.52v2.19H382.85V153.9h17.71v2.23H385Z" transform="translate(-7.5 -7.71)"/><path class="cls-1" d="M407.11,179.46h13.64v2.19H404.91V153.9h2.2Z" transform="translate(-7.5 -7.71)"/><path class="cls-1" d="M437.24,186.49v1.2h-7.87v-2.45h5.38V153.17h-5.38v-2.49h7.87v35.81Z" transform="translate(-7.5 -7.71)"/></svg>